<svg width="1648" height="964" viewBox="0 0 1648 964" fill="none" xmlns="http://www.w3.org/2000/svg">
<mask id="mask0_4_6" style="mask-type:luminance" maskUnits="userSpaceOnUse" x="0" y="-1" width="1648" height="965">
<path d="M1648 -1H0V964H1648V-1Z" fill="white"/>
</mask>
<g mask="url(#mask0_4_6)">
<path d="M1112.33 759.775C1070.73 665.882 1034.67 573.05 1004.29 475.818C980.38 520.503 960.694 585.39 943.898 632.507C928.962 606.029 922.766 576.522 916.73 547.452C905.007 572.936 893.286 598.421 881.564 623.905C871.924 592.097 862.284 560.29 852.644 528.482C840.357 551.615 828.069 574.748 815.782 597.881C809.309 555.901 795.206 506.374 782.358 469.061C764.78 511.521 750.805 553.89 734.404 593.581C724.057 568.242 713.709 542.903 703.362 517.564C675.23 583.95 649.196 651.631 631.692 720.897C627.169 738.796 618.628 756.373 608.969 772.625" fill="#005E77"/>
<path d="M1020.86 524.213C1013.4 527.959 1005.94 531.707 998.482 535.453C1007.92 540.838 1021.1 533.382 1031.54 537.059" fill="#86C3CE"/>
<path d="M966.477 553.358C975.91 560.659 986.965 566.333 998.835 569.969C991.821 560.433 983.559 551.607 974.265 543.717" fill="#86C3CE"/>
<path d="M1048.44 586.365C1030.41 591.78 1012.38 597.196 994.353 602.609C1007.43 591.354 1021.42 580.918 1036.19 571.405C1039.38 569.348 1040.54 568.456 1043.84 566.526" fill="#86C3CE"/>
<path d="M992.1 711.293C994.891 632.75 999.154 554.249 1004.88 475.83" stroke="#022733" stroke-width="2.03841" stroke-miterlimit="10" stroke-linecap="round" stroke-linejoin="round"/>
<path d="M928.879 597.578C921.705 602.233 914.528 606.89 907.352 611.545C917.681 610.906 928.011 610.268 938.341 609.629" fill="#86C3CE"/>
<path d="M908.103 631.478C908.729 604.333 911.726 577.232 917.062 550.488" stroke="#022733" stroke-width="2.03841" stroke-miterlimit="10" stroke-linecap="round" stroke-linejoin="round"/>
<path d="M979.835 533.656C986.567 541.021 993.3 548.384 1000.03 555.749" stroke="#022733" stroke-width="2.03841" stroke-miterlimit="10" stroke-linecap="round" stroke-linejoin="round"/>
<path d="M998.862 622.596C1013.68 614.811 1029.46 608.434 1045.83 603.619" stroke="#022733" stroke-width="2.03841" stroke-miterlimit="10" stroke-linecap="round" stroke-linejoin="round"/>
<path d="M999.11 635.902C1016 628.275 1032.9 620.649 1049.79 613.022" stroke="#022733" stroke-width="2.03841" stroke-miterlimit="10" stroke-linecap="round" stroke-linejoin="round"/>
<path d="M960.325 593.241C971.672 603.142 983.867 612.292 996.774 620.589" stroke="#022733" stroke-width="2.03841" stroke-miterlimit="10" stroke-linecap="round" stroke-linejoin="round"/>
<path d="M908.16 599.579C914.55 595.775 920.94 591.969 927.332 588.165" stroke="#022733" stroke-width="2.03841" stroke-miterlimit="10" stroke-linecap="round" stroke-linejoin="round"/>
<path d="M912.186 629.954C920.061 625.756 927.939 621.558 935.814 617.36" stroke="#022733" stroke-width="2.03841" stroke-miterlimit="10" stroke-linecap="round" stroke-linejoin="round"/>
<path d="M843.882 599.336C847.925 576.661 850.254 553.751 850.852 530.808" stroke="#022733" stroke-width="2.03841" stroke-miterlimit="10" stroke-linecap="round" stroke-linejoin="round"/>
<path d="M831.005 567.132C837.259 571.26 842.706 576.327 847.037 582.047" stroke="#022733" stroke-width="2.03841" stroke-miterlimit="10" stroke-linecap="round" stroke-linejoin="round"/>
<path d="M836.45 560.52C840.728 564.478 845.004 568.435 849.283 572.393" stroke="#022733" stroke-width="2.03841" stroke-miterlimit="10" stroke-linecap="round" stroke-linejoin="round"/>
<path d="M771.572 602.233C771.959 558.627 775.78 515.043 782.998 471.898" stroke="#022733" stroke-width="2.03841" stroke-miterlimit="10" stroke-linecap="round" stroke-linejoin="round"/>
<path d="M702.855 520.185C701.172 543.959 701.024 567.817 702.411 591.605" stroke="#022733" stroke-width="2.03841" stroke-miterlimit="10" stroke-linecap="round" stroke-linejoin="round"/>
</g>
<mask id="mask1_4_6" style="mask-type:luminance" maskUnits="userSpaceOnUse" x="0" y="-1" width="1648" height="965">
<path d="M1648 -1H0V964H1648V-1Z" fill="white"/>
</mask>
<g mask="url(#mask1_4_6)">
<path d="M1706.76 1023.06C1638.65 1051.78 1552.06 1083.3 1475.1 1076.56C1401.54 1070.11 1326.73 1060.54 1252.18 1058.16C1176.99 1055.77 1101.35 1058.99 1026.62 1049.71C970.58 1042.75 917.536 1023.65 862.906 1016.09C807.676 1008.45 755.973 1001.71 712.417 966.987C690.169 949.249 672.575 922.731 680.396 897.243C696.594 844.473 784.494 825.078 833.508 806.664C895.715 783.294 958.991 755.647 999.875 706.412C1029.26 671.028 1043.94 628.145 1065.11 588.493C1080.58 559.532 1103.93 522.435 1137.66 506.947C1170.36 491.928 1207.26 495.929 1240.78 477.599C1320.02 434.263 1336.63 328.2 1421.63 294.305C1433.34 289.635 1445.89 286.612 1457.22 281.268C1481.61 269.767 1497.94 248.854 1516.19 230.569C1534.73 211.991 1556.05 195.551 1579.42 181.81C1591.19 174.892 1603.9 168.52 1617.95 166.925C1661.2 162.012 1693.01 202.339 1705.05 239.154C1731.8 320.924 1715.8 408.492 1727.1 492.989C1740.82 595.592 1794.55 691.922 1804.76 794.839C1808.83 835.879 1805.86 877.308 1798.48 917.989C1794.85 938.018 1789.9 958.43 1777.39 975.474C1761.09 997.659 1733.86 1011.63 1706.76 1023.06Z" fill="#008197"/>
<path opacity="0.31" d="M1091.66 581.156C1100.51 558.521 1118.61 538.767 1141.88 526.326" stroke="#9ED7DD" stroke-width="2.37815" stroke-miterlimit="10" stroke-linecap="round" stroke-linejoin="round"/>
<path opacity="0.31" d="M1164.33 516.989C1172.14 514.416 1179.95 511.842 1187.77 509.269" stroke="#9ED7DD" stroke-width="2.37815" stroke-miterlimit="10" stroke-linecap="round" stroke-linejoin="round"/>
<path opacity="0.31" d="M1136.66 542.891C1145.78 535.876 1156.89 530.879 1168.7 528.484" stroke="#9ED7DD" stroke-width="2.37815" stroke-miterlimit="10" stroke-linecap="round" stroke-linejoin="round"/>
<path opacity="0.31" d="M1242.12 496.689C1270.28 484.937 1292.64 462.897 1302.71 436.981" stroke="#9ED7DD" stroke-width="2.37815" stroke-miterlimit="10" stroke-linecap="round" stroke-linejoin="round"/>
<path opacity="0.31" d="M1323.73 417.812C1326.88 411.447 1330.93 405.425 1335.76 399.93" stroke="#9ED7DD" stroke-width="2.37815" stroke-miterlimit="10" stroke-linecap="round" stroke-linejoin="round"/>
<path opacity="0.31" d="M1349.31 380.123C1371.11 345.811 1407.28 318.732 1449.3 305.26C1463.7 300.644 1479.68 297.038 1489.41 286.636" stroke="#9ED7DD" stroke-width="2.37815" stroke-miterlimit="10" stroke-linecap="round" stroke-linejoin="round"/>
<path opacity="0.31" d="M1394.22 352.198C1404.87 344.624 1416.12 337.694 1427.84 331.475" stroke="#9ED7DD" stroke-width="2.37815" stroke-miterlimit="10" stroke-linecap="round" stroke-linejoin="round"/>
<path opacity="0.31" d="M1507.17 268.714C1512.15 264.464 1517.54 260.592 1523.28 257.155" stroke="#9ED7DD" stroke-width="2.37815" stroke-miterlimit="10" stroke-linecap="round" stroke-linejoin="round"/>
<path opacity="0.31" d="M1545.42 230.399C1559.33 215.432 1573.65 200.148 1592.6 190.329C1611.54 180.511 1636.38 177.122 1655.4 186.828" stroke="#9ED7DD" stroke-width="2.37815" stroke-miterlimit="10" stroke-linecap="round" stroke-linejoin="round"/>
<path opacity="0.31" d="M1542.82 254.013C1550.49 246.598 1558.16 239.183 1565.83 231.768" stroke="#9ED7DD" stroke-width="2.37815" stroke-miterlimit="10" stroke-linecap="round" stroke-linejoin="round"/>
<path opacity="0.31" d="M1022.87 711.552C1030.27 698.505 1037.67 685.459 1045.06 672.41" stroke="#9ED7DD" stroke-width="2.37815" stroke-miterlimit="10" stroke-linecap="round" stroke-linejoin="round"/>
<path opacity="0.31" d="M1056.35 695.979C1061.33 684.501 1066.75 673.17 1072.6 662.017" stroke="#9ED7DD" stroke-width="2.37815" stroke-miterlimit="10" stroke-linecap="round" stroke-linejoin="round"/>
<path opacity="0.31" d="M1081.15 647.578C1082.38 642.161 1084.62 636.919 1087.74 632.121" stroke="#9ED7DD" stroke-width="2.37815" stroke-miterlimit="10" stroke-linecap="round" stroke-linejoin="round"/>
</g>
<mask id="mask2_4_6" style="mask-type:luminance" maskUnits="userSpaceOnUse" x="0" y="-1" width="1648" height="965">
<path d="M1648 -1H0V964H1648V-1Z" fill="white"/>
</mask>
<g mask="url(#mask2_4_6)">
<path d="M1183.97 445.545C1189.71 431.167 1199.13 415.395 1216.11 412.266C1219.06 411.722 1222.41 411.689 1224.77 413.335C1227.13 414.98 1227.84 417.797 1229.16 420.177C1234.29 429.43 1249.45 431.383 1259.78 426.525C1270.11 421.669 1276.39 412.129 1280.97 402.659C1285.56 393.188 1289.11 383.123 1296.26 374.969C1303.41 366.815 1315.45 360.859 1326.74 363.617C1340.9 367.079 1346.98 381.926 1347.43 394.828C1347.6 399.758 1347.43 405.137 1350.86 409.047C1358.15 417.369 1373.43 411.814 1382.16 404.639C1390.88 397.463 1401.48 388.384 1412.81 391.75C1424.17 395.128 1426.31 408.194 1426.49 418.728C1426.6 425.749 1426.72 432.772 1426.84 439.794" fill="white"/>
</g>
</svg>
