<svg width="1648" height="964" viewBox="0 0 1648 964" fill="none" xmlns="http://www.w3.org/2000/svg">
<mask id="mask0_4_6" style="mask-type:luminance" maskUnits="userSpaceOnUse" x="0" y="-1" width="1648" height="965">
<path d="M1648 -1H0V964H1648V-1Z" fill="white"/>
</mask>
<g mask="url(#mask0_4_6)">
<path d="M1259.29 782.837C1266.85 736.113 1287.03 690.085 1313.97 649.342C1321.8 672.676 1334.88 705.967 1344.88 723.821C1360.84 689.583 1380.93 633.63 1400.63 600.926C1408.62 633.746 1416.62 666.566 1424.61 699.387C1437.83 655.364 1453.97 612.018 1472.93 569.649C1493.63 639.032 1517.97 707.578 1545.85 774.993" fill="#013A51"/>
<path d="M1375.2 648.553C1379.63 652.162 1384.06 655.773 1388.48 659.382C1389.26 660.013 1390.1 660.795 1389.97 661.716C1389.73 663.449 1386.84 663.377 1384.96 662.806C1376.22 660.149 1367.47 657.489 1358.73 654.831" fill="#008197"/>
<path d="M1417.26 661.019C1409.89 668.32 1402.52 675.623 1395.16 682.924C1404.86 679.352 1414.3 675.231 1423.4 670.598" fill="#008197"/>
<path d="M1390.32 754.956C1394.46 704.434 1397.52 653.843 1399.51 603.221" stroke="#022733" stroke-width="2.03841" stroke-miterlimit="10" stroke-linecap="round" stroke-linejoin="round"/>
<path d="M1331.61 683.911C1322.77 685.306 1314.21 688.008 1306.38 691.868C1317.62 691.301 1329 692.962 1339.43 696.695" fill="#008197"/>
<path d="M1307.12 707.47C1309.03 688.556 1311.35 669.675 1314.09 650.84" stroke="#022733" stroke-width="2.03841" stroke-miterlimit="10" stroke-linecap="round" stroke-linejoin="round"/>
<path d="M1444.89 629.23C1453.1 635.321 1462.35 640.324 1472.24 644.018C1466.32 633.895 1458.72 624.53 1449.76 616.31" fill="#008197"/>
<path d="M1468.15 722.872C1469.81 672.684 1471.48 622.496 1473.14 572.308" stroke="#022733" stroke-width="2.03841" stroke-miterlimit="10" stroke-linecap="round" stroke-linejoin="round"/>
<path d="M1501.78 644.353C1489.82 649.759 1478.61 656.433 1468.46 664.186C1481.33 661.596 1494.08 658.554 1506.67 655.071" fill="#008197"/>
<path d="M1384.02 643.11C1388.71 647.978 1393.39 652.843 1398.07 657.711" stroke="#022733" stroke-width="2.03841" stroke-miterlimit="10" stroke-linecap="round" stroke-linejoin="round"/>
<path d="M1468.98 652.052C1476.57 645.728 1485.03 640.215 1494.13 635.674" stroke="#022733" stroke-width="2.03841" stroke-miterlimit="10" stroke-linecap="round" stroke-linejoin="round"/>
<path d="M1306.97 685.19C1313.8 682.104 1320.82 679.335 1327.98 676.893" stroke="#022733" stroke-width="2.03841" stroke-miterlimit="10" stroke-linecap="round" stroke-linejoin="round"/>
<path d="M1362.19 686.754C1372.48 697.45 1382.77 708.146 1393.06 718.842" stroke="#022733" stroke-width="2.03841" stroke-miterlimit="10" stroke-linecap="round" stroke-linejoin="round"/>
<path d="M1467.64 686.91C1478.27 679.088 1490.02 672.45 1502.54 667.207" stroke="#022733" stroke-width="2.03841" stroke-miterlimit="10" stroke-linecap="round" stroke-linejoin="round"/>
</g>
<mask id="mask1_4_6" style="mask-type:luminance" maskUnits="userSpaceOnUse" x="0" y="-1" width="1648" height="965">
<path d="M1648 -1H0V964H1648V-1Z" fill="white"/>
</mask>
<g mask="url(#mask1_4_6)">
<path d="M129.192 551.227C146.745 499.049 167.701 455.397 194.425 406.693C196.929 424.14 202.036 441.296 209.573 457.587C224.036 436.556 238.499 415.525 252.961 394.492C260.087 423.15 267.211 451.811 274.337 480.469C283.153 470.68 291.969 460.889 300.784 451.101C304.68 470.314 310.96 489.154 319.479 507.179C334.711 479.197 351.936 452.054 371.02 425.96C375.102 453.476 382.066 480.66 391.798 507.061C403.597 491.741 417.285 477.542 432.545 464.796C439.605 501.392 447.727 537.831 456.896 574.067" fill="#037082"/>
<path d="M337.379 467.16C344.502 472.199 352.386 476.411 360.756 479.651C355.105 471.329 349.453 463.007 343.801 454.685" fill="#86C3CE"/>
<path d="M384.617 481.529C374.144 483.637 364.041 487.157 354.77 491.928C366.741 494.051 379.036 494.757 391.22 494.024" fill="#86C3CE"/>
<path d="M218.395 443.402C225.249 449.894 233.275 455.431 242.082 459.739C238.452 448.922 232.961 438.586 225.851 429.195" fill="#86C3CE"/>
<path d="M350.382 528.993C355.348 495.585 361.87 462.354 369.923 429.413" stroke="#004E60" stroke-width="2.03841" stroke-miterlimit="10" stroke-linecap="round" stroke-linejoin="round"/>
<path d="M275.915 526.268C278.246 518.282 280.577 510.294 282.911 502.307C287.688 485.945 292.478 469.544 299.22 453.723" stroke="#004E60" stroke-width="2.03841" stroke-miterlimit="10" stroke-linecap="round" stroke-linejoin="round"/>
<path d="M232.878 505.872C239.687 470.146 246.141 434.367 252.234 398.543" stroke="#004E60" stroke-width="2.03841" stroke-miterlimit="10" stroke-linecap="round" stroke-linejoin="round"/>
<path d="M186.162 466.079C189.096 447.422 192.361 428.805 195.954 410.239" stroke="#004E60" stroke-width="2.03841" stroke-miterlimit="10" stroke-linecap="round" stroke-linejoin="round"/>
<path d="M416.274 524.969C423.371 504.747 429.273 484.198 433.949 463.439" stroke="#004E60" stroke-width="2.03841" stroke-miterlimit="10" stroke-linecap="round" stroke-linejoin="round"/>
<path d="M352.931 452.571C356.175 457.103 359.418 461.636 362.661 466.168" stroke="#004E60" stroke-width="2.03841" stroke-miterlimit="10" stroke-linecap="round" stroke-linejoin="round"/>
<path d="M353.878 502.84C364.243 500.358 375.008 499.167 385.75 499.316" stroke="#004E60" stroke-width="2.03841" stroke-miterlimit="10" stroke-linecap="round" stroke-linejoin="round"/>
<path d="M417.566 479.688C419.921 485.069 422.598 490.343 425.582 495.477" stroke="#004E60" stroke-width="2.03841" stroke-miterlimit="10"/>
<path d="M233.535 427.315C237.688 433.866 241.843 440.418 245.996 446.968" stroke="#004E60" stroke-width="2.03841" stroke-miterlimit="10" stroke-linecap="round" stroke-linejoin="round"/>
<path d="M238.701 479.006C249.066 474.044 259.147 468.623 268.89 462.769" stroke="#004E60" stroke-width="2.03841" stroke-miterlimit="10" stroke-linecap="round" stroke-linejoin="round"/>
<path d="M287.038 487.711C293.489 484.889 299.941 482.067 306.392 479.246" stroke="#004E60" stroke-width="2.03841" stroke-miterlimit="10" stroke-linecap="round" stroke-linejoin="round"/>
</g>
<mask id="mask2_4_6" style="mask-type:luminance" maskUnits="userSpaceOnUse" x="0" y="-1" width="1648" height="965">
<path d="M1648 -1H0V964H1648V-1Z" fill="white"/>
</mask>
<g mask="url(#mask2_4_6)">
<path d="M1478.68 714.042C1482.42 709.255 1486.02 704.4 1489.53 699.646C1519.97 658.446 1551.98 613.719 1605.56 593.619C1624.11 586.662 1645.4 583.25 1664.48 589.005C1678.32 593.183 1689.85 601.814 1699.87 611.196C1747.47 655.8 1766.02 717.884 1782.9 777.195C1807.07 862.115 1823.6 955.124 1816.74 1042.79C1815.51 1058.54 1814.22 1074.53 1807.59 1089.37C1787.37 1134.65 1723.85 1156.64 1665.35 1162.16C1629.98 1165.5 1594.27 1164.74 1558.7 1163.98C1364.38 1159.82 1165.88 1155.01 983.996 1099.36C879.665 1067.44 1143.41 806.892 1182.48 770.353C1209.73 744.874 1240.27 719.324 1279.03 711.371C1334.77 699.926 1342.83 734.116 1379.69 753.553C1420.9 775.288 1457.43 741.295 1478.68 714.042Z" fill="#015163"/>
<path d="M1460.33 757.737C1475.49 749.585 1488.59 738.495 1498.43 725.491" stroke="#03717C" stroke-width="1.69868" stroke-miterlimit="10" stroke-linecap="round" stroke-linejoin="round"/>
<path d="M1507.55 712.114C1510.74 706.509 1515.11 701.427 1520.38 697.204" stroke="#03717C" stroke-width="1.69868" stroke-miterlimit="10" stroke-linecap="round" stroke-linejoin="round"/>
<path d="M1500.31 743.891C1512.48 732.91 1523.08 720.583 1531.77 707.293" stroke="#03717C" stroke-width="1.69868" stroke-miterlimit="10" stroke-linecap="round" stroke-linejoin="round"/>
<path d="M1544.54 669.204C1559.21 645.567 1579.99 624.878 1604.87 609.152" stroke="#03717C" stroke-width="1.69868" stroke-miterlimit="10" stroke-linecap="round" stroke-linejoin="round"/>
<path d="M1594.14 638.258C1608.16 619.653 1632.55 607.405 1657.92 606.24C1660.74 606.11 1664 606.282 1665.72 608.245" stroke="#03717C" stroke-width="1.69868" stroke-miterlimit="10" stroke-linecap="round" stroke-linejoin="round"/>
<path d="M1416.31 772.023C1424.12 771.544 1431.93 771.067 1439.73 770.589" stroke="#03717C" stroke-width="1.69868" stroke-miterlimit="10" stroke-linecap="round" stroke-linejoin="round"/>
<path d="M1224.58 763.307C1241.67 742.791 1267.95 725.518 1296.84 727.1" stroke="#03717C" stroke-width="1.69868" stroke-miterlimit="10" stroke-linecap="round" stroke-linejoin="round"/>
<path d="M1316.64 732.8C1321.7 732.396 1326.93 734.647 1329.66 738.408" stroke="#03717C" stroke-width="1.69868" stroke-miterlimit="10" stroke-linecap="round" stroke-linejoin="round"/>
<path d="M1320.07 744.223C1330.63 751.71 1341.2 759.196 1351.76 766.683" stroke="#03717C" stroke-width="1.69868" stroke-miterlimit="10" stroke-linecap="round" stroke-linejoin="round"/>
</g>
<mask id="mask3_4_6" style="mask-type:luminance" maskUnits="userSpaceOnUse" x="0" y="-1" width="1648" height="965">
<path d="M1648 -1H0V964H1648V-1Z" fill="white"/>
</mask>
<g mask="url(#mask3_4_6)">
<path d="M-73.092 223.866C-66.4912 219.995 -57.5854 218.337 -45.6737 219.701C-5.66242 224.285 23.0567 243.525 55.4322 262.933C63.4942 267.766 71.7936 272.813 76.9156 280.11C82.0551 287.433 83.4878 296.322 88.0011 303.955C95.9137 317.344 112.227 325.319 121.976 337.738C133.763 352.752 132.893 370.488 138.812 387.198C144.301 402.696 153.895 416.847 162.17 431.571C179.065 461.631 200.505 490.229 233.262 508.595C281.382 535.573 341.329 534.314 395.88 528.571C420.172 526.014 446.158 523.823 469.625 517.977C494.666 511.739 519.535 498.503 546.453 504.509C552.946 505.959 559.041 508.505 565.09 511.035C594.968 523.537 623.241 527.619 649.73 547.054C675.254 565.783 695.66 589.624 714.907 613.251C746.028 651.226 773.747 693.059 817.208 720.114C844.415 737.051 876.334 747.174 908.446 755.07C972.107 770.72 1038.31 778.367 1104.41 777.701C1072.62 830.511 1011.08 859.784 946.438 878.368C892.882 893.763 838.889 909.246 782.925 915.038C710 922.584 643.713 910.539 572.79 903.898C491.355 896.27 396.217 918.842 313.814 922.623C223.924 926.747 131.095 927.222 47.3724 898.187C-1.1535 881.357 -47.1305 852.919 -68.9566 811.294C-86.5089 777.819 -86.7572 739.616 -86.6891 702.763C-86.4584 580.797 -86.2298 458.83 -85.9991 336.864C-85.9354 303.21 -102.714 241.242 -73.092 223.866Z" fill="#3AA5A5"/>
<path d="M32.0196 272.464C50.8683 284.785 66.0431 301.402 75.6476 320.235" stroke="#037C73" stroke-width="2.03841" stroke-miterlimit="10" stroke-linecap="round" stroke-linejoin="round"/>
<path d="M85.9509 334.366C88.4801 339.479 91.0092 344.593 93.5361 349.706" stroke="#037C73" stroke-width="2.03841" stroke-miterlimit="10" stroke-linecap="round" stroke-linejoin="round"/>
<path d="M61.1322 329.196C65.6257 336.872 70.1215 344.545 74.615 352.221" stroke="#037C73" stroke-width="2.03841" stroke-miterlimit="10" stroke-linecap="round" stroke-linejoin="round"/>
<path d="M109.295 389.727C121.814 415.467 137.971 439.843 157.272 462.115" stroke="#037C73" stroke-width="2.03841" stroke-miterlimit="10" stroke-linecap="round" stroke-linejoin="round"/>
<path d="M87.566 387.073C94.2877 396.962 100.214 407.268 105.285 417.889" stroke="#037C73" stroke-width="2.03841" stroke-miterlimit="10" stroke-linecap="round" stroke-linejoin="round"/>
<path d="M173.049 484.549C191.922 508.617 220.186 526.888 251.959 535.563" stroke="#037C73" stroke-width="2.03841" stroke-miterlimit="10" stroke-linecap="round" stroke-linejoin="round"/>
<path d="M136.044 464.198C147.894 480.064 161.076 495.164 175.448 509.332" stroke="#037C73" stroke-width="2.03841" stroke-miterlimit="10" stroke-linecap="round" stroke-linejoin="round"/>
<path d="M283.889 540.321C291.105 541.662 298.556 542.015 305.895 541.361" stroke="#037C73" stroke-width="2.03841" stroke-miterlimit="10" stroke-linecap="round" stroke-linejoin="round"/>
<path d="M310.325 555.008C334.832 555.934 359.453 554.531 383.617 550.831" stroke="#037C73" stroke-width="2.03841" stroke-miterlimit="10" stroke-linecap="round" stroke-linejoin="round"/>
<path d="M481.682 536.262C538.968 524.178 602.427 537.416 647.411 570.834" stroke="#037C73" stroke-width="2.03841" stroke-miterlimit="10" stroke-linecap="round" stroke-linejoin="round"/>
<path d="M623.656 576.415C632.964 580.219 642.269 584.025 651.577 587.829" stroke="#037C73" stroke-width="2.03841" stroke-miterlimit="10" stroke-linecap="round" stroke-linejoin="round"/>
<path d="M430.416 541.504C438.307 541.758 446.248 540.745 453.73 538.53" stroke="#037C73" stroke-width="2.03841" stroke-miterlimit="10" stroke-linecap="round" stroke-linejoin="round"/>
</g>
</svg>
