<svg width="1648" height="964" viewBox="0 0 1648 964" fill="none" xmlns="http://www.w3.org/2000/svg">
<mask id="mask0_5_406" style="mask-type:luminance" maskUnits="userSpaceOnUse" x="0" y="-2" width="1599" height="966">
<path d="M1598.5 -1.12457H0V963.536H1598.5V-1.12457Z" fill="white"/>
</mask>
<g mask="url(#mask0_5_406)">
<path d="M807.9 752.571C790.067 730.403 772.233 708.235 754.4 686.065C744.757 674.078 733.748 661.24 717.35 657.559C713.587 656.714 709.516 656.343 706.379 654.365C703.738 652.699 702.131 650.115 700.627 647.614C687.178 625.284 674.847 602.456 663.674 579.214C656.866 596.37 648.306 615.626 641.498 632.78C636.062 646.477 630.557 661.019 634.143 675.161C637.355 687.829 647.543 698.411 659.052 706.786C697.009 734.406 758.755 746.1 807.9 752.571Z" fill="#AF6357"/>
<path d="M685.186 641.799C690.268 648.579 695.629 655.598 703.293 659.418C706.464 660.998 709.918 661.967 713.175 663.372C719.072 665.916 724.303 669.915 728.247 674.892" stroke="#7A3530" stroke-width="1.69868" stroke-miterlimit="10" stroke-linecap="round" stroke-linejoin="round"/>
<path d="M668.254 633.183C673.951 641.579 680.463 649.447 687.676 656.646" stroke="#7A3530" stroke-width="1.69868" stroke-miterlimit="10" stroke-linecap="round" stroke-linejoin="round"/>
<path d="M737.379 685.328C740.641 688.894 743.903 692.461 747.165 696.028" stroke="#7A3530" stroke-width="1.69868" stroke-miterlimit="10" stroke-linecap="round" stroke-linejoin="round"/>
<path d="M726.713 688.041C732.651 694.48 739.089 700.476 745.955 705.965" stroke="#7A3530" stroke-width="1.69868" stroke-miterlimit="10" stroke-linecap="round" stroke-linejoin="round"/>
<path d="M937.662 751.934C949.442 769.947 966.27 806.503 998.19 823.854C1003.9 826.957 1010.03 829.493 1015.44 832.977C1021.61 836.956 1026.66 842.059 1031.61 847.149C1090.09 907.243 1142.54 971.674 1188.19 1039.49C1170.69 1059.14 1138.37 1071.17 1109.92 1067.51C1081.46 1063.85 1055.82 1050.62 1033.32 1035.19C923.975 960.181 891.11 865.376 937.662 751.934Z" fill="#AF6357"/>
<path d="M954.01 799.989C962.866 813.038 972.365 826.656 986.705 833.66C991.356 835.931 996.369 837.421 1001.08 839.572C1017.46 847.041 1028.92 861.747 1039.7 875.908" stroke="#7A3530" stroke-width="1.69868" stroke-miterlimit="10" stroke-linecap="round" stroke-linejoin="round"/>
<path d="M1026.92 873.545C1033.05 883.054 1040.4 891.807 1048.75 899.531" stroke="#7A3530" stroke-width="1.69868" stroke-miterlimit="10" stroke-linecap="round" stroke-linejoin="round"/>
<path d="M1049.76 884.081C1052.05 886.671 1054.33 889.261 1056.62 891.851" stroke="#7A3530" stroke-width="1.69868" stroke-miterlimit="10" stroke-linecap="round" stroke-linejoin="round"/>
<path d="M952.755 815.682C956.035 819.554 959.316 823.425 962.596 827.297" stroke="#7A3530" stroke-width="1.69868" stroke-miterlimit="10" stroke-linecap="round" stroke-linejoin="round"/>
<path d="M1068.54 903.383C1071.79 906.956 1075.05 910.526 1078.3 914.098" stroke="#7A3530" stroke-width="1.69868" stroke-miterlimit="10" stroke-linecap="round" stroke-linejoin="round"/>
<path d="M1072.52 935.573C1032.16 938.935 989.387 929.127 959.998 905.085C935.673 885.185 919.548 852.132 927.26 823.12C933.38 800.089 952.454 786.684 942.41 759.722C937.144 745.584 923.621 734.616 908.419 727.589C876.501 712.834 838.296 713.573 802.108 715.148C765.921 716.723 728.021 718.497 695.141 705.4C662.261 692.305 637.209 658.817 650.477 629.815C656.378 616.917 669.185 605.534 668.185 591.7C666.618 569.997 634.433 561.731 609.152 561.678C473.161 561.402 349.571 631.892 214.375 644.524C181.673 647.579 144.558 645.807 121.929 625.27C111.636 615.929 104.913 603.127 91.6546 597.163C79.3193 591.613 64.4102 593.421 50.7682 595.807C-50.4326 613.489 -145.693 655.656 -221.243 716.214C-206.069 801.3 -216.9 892.226 -221.286 978.225C171.567 986.948 564.231 1001.96 956.436 1023.26C986.311 1024.88 1020.73 1025.02 1040.54 1005.72C1052.04 994.518 1061.03 946.777 1072.52 935.573Z" fill="#002F3E"/>
<path d="M352.505 742.424C351.914 740.973 351.374 739.437 351.433 737.853C351.492 736.269 352.289 734.617 353.668 734.072C355.024 733.535 356.525 734.165 357.789 734.919C362.834 737.93 366.615 742.995 369.263 748.522C371.983 754.2 378.214 768.634 367.856 763.147C361.109 759.572 355.402 749.533 352.505 742.424Z" fill="#00726A"/>
<path d="M393.413 741.073C394.005 739.621 394.543 738.085 394.484 736.501C394.426 734.917 393.629 733.265 392.249 732.72C390.893 732.183 389.392 732.813 388.128 733.568C383.084 736.578 379.302 741.643 376.654 747.171C373.934 752.848 367.703 767.282 378.061 761.795C384.808 758.22 390.515 748.182 393.413 741.073Z" fill="#00726A"/>
<path d="M367.587 740.577C366.603 732.907 367.287 724.482 371.799 718.463C372.231 717.886 372.728 717.314 373.383 717.09C374.593 716.675 375.842 717.58 376.72 718.568C379.591 721.802 380.887 726.378 381.034 730.853C381.18 735.329 380.276 739.763 379.254 744.103C378.521 747.218 377.768 765.194 373.025 764.168C369.359 763.377 368.031 744.034 367.587 740.577Z" fill="#00726A"/>
<path d="M348.364 746.184C354.033 752.418 360.62 757.678 367.8 761.709" stroke="#00726A" stroke-width="1.18975" stroke-miterlimit="10" stroke-linecap="round" stroke-linejoin="round"/>
<path d="M361.752 724.662C363.624 732.438 365.496 740.213 367.369 747.987C367.526 748.639 368.284 749.41 368.584 748.82" stroke="#00726A" stroke-width="1.18975" stroke-miterlimit="10" stroke-linecap="round" stroke-linejoin="round"/>
<path d="M378.578 749.562C380.553 741.645 382.527 733.726 384.502 725.809" stroke="#00726A" stroke-width="1.18975" stroke-miterlimit="10" stroke-linecap="round" stroke-linejoin="round"/>
<path d="M373.845 762.363C374.068 747.719 374.291 733.076 374.515 718.432" stroke="#005B52" stroke-width="1.18975" stroke-miterlimit="10" stroke-linecap="round" stroke-linejoin="round"/>
<path d="M352.807 736.647C361.164 743.519 368.737 751.502 375.301 760.357" stroke="#005B52" stroke-width="1.18975" stroke-miterlimit="10" stroke-linecap="round" stroke-linejoin="round"/>
<path d="M377.22 747.496C376.96 744.109 377.161 740.682 377.815 737.357" stroke="#005B52" stroke-width="1.18975" stroke-miterlimit="10" stroke-linecap="round" stroke-linejoin="round"/>
<path d="M374.138 761.755C380.681 753.377 386.711 744.532 392.176 735.298" stroke="#005B52" stroke-width="1.18975" stroke-miterlimit="10" stroke-linecap="round" stroke-linejoin="round"/>
<path d="M660.894 826.153C658.66 820.902 657.42 814.992 658.361 809.303C658.769 806.834 659.699 804.279 661.643 802.901C663.91 801.294 667.043 801.754 669.323 803.338C671.605 804.922 673.186 807.431 674.531 809.974C677.957 816.453 691.244 844.571 684.605 850.907C676.335 858.797 663.492 832.261 660.894 826.153Z" fill="#00726A"/>
<path d="M683.039 793.296C684.498 789.97 686.823 786.496 690.218 786.162C692.809 785.907 695.298 787.679 696.732 790.022C698.167 792.364 698.723 795.199 699.091 797.978C700.155 806.011 698.198 853.39 685.648 852.935C672.65 852.464 680.035 800.142 683.039 793.296Z" fill="#00726A"/>
<path d="M709.153 819.063C710.964 817.806 712.941 816.698 715.083 816.471C717.226 816.243 719.571 817.056 720.782 818.978C721.973 820.868 721.844 823.452 720.973 825.536C720.103 827.619 718.598 829.303 717.09 830.906C713.831 834.372 689.04 859.938 686.064 851.133C684.693 847.077 695.042 835.313 697.006 832.196C700.25 827.045 704.283 822.447 709.153 819.063Z" fill="#00726A"/>
<path d="M684.631 850.657C687.232 830.023 689.263 809.306 690.72 788.542" stroke="#005B52" stroke-width="1.18975" stroke-miterlimit="10" stroke-linecap="round" stroke-linejoin="round"/>
<path d="M661.542 803.767C665.091 811.464 668.638 819.161 672.187 826.858" stroke="#005B52" stroke-width="1.18975" stroke-miterlimit="10" stroke-linecap="round" stroke-linejoin="round"/>
<path d="M673.384 830.747C675.853 837.431 678.978 843.833 682.688 849.811" stroke="#005B52" stroke-width="1.18975" stroke-miterlimit="10" stroke-linecap="round" stroke-linejoin="round"/>
<path d="M688.159 850.692C698.451 840.794 708.254 830.305 717.512 819.282" stroke="#005B52" stroke-width="1.18975" stroke-miterlimit="10" stroke-linecap="round" stroke-linejoin="round"/>
<path d="M658.934 829.056C663.518 837.82 669.705 845.605 677.033 851.829" stroke="#005B52" stroke-width="1.18975" stroke-miterlimit="10" stroke-linecap="round" stroke-linejoin="round"/>
<path d="M660.666 842.066C663.116 845.258 665.693 848.336 668.386 851.291" stroke="#005B52" stroke-width="1.18975" stroke-miterlimit="10" stroke-linecap="round" stroke-linejoin="round"/>
<path d="M695.765 833.155C699.024 824.73 702.002 816.177 704.689 807.52" stroke="#005B52" stroke-width="1.18975" stroke-miterlimit="10" stroke-linecap="round" stroke-linejoin="round"/>
<path d="M697.801 852.53C699.331 850.577 700.861 848.625 702.392 846.672" stroke="#005B52" stroke-width="1.18975" stroke-miterlimit="10" stroke-linecap="round" stroke-linejoin="round"/>
<path d="M705.568 853.761C706.587 851.988 707.607 850.218 708.626 848.445" stroke="#005B52" stroke-width="1.18975" stroke-miterlimit="10" stroke-linecap="round" stroke-linejoin="round"/>
<path d="M795.721 810.374C798.17 802.684 800.754 794.887 805.265 788.375C809.777 781.862 816.577 776.715 824.106 776.432C831.589 776.151 838.748 780.792 843.238 787.26C847.728 793.728 849.833 801.806 850.667 809.839" fill="#00A474"/>
<path d="M803.323 788.819C805.483 795.323 807.643 801.829 809.803 808.334" stroke="#025B52" stroke-width="1.4277" stroke-miterlimit="10" stroke-linecap="round" stroke-linejoin="round"/>
<path d="M810.107 778.521C812.098 788.346 814.348 798.109 816.855 807.796" stroke="#025B52" stroke-width="1.4277" stroke-miterlimit="10" stroke-linecap="round" stroke-linejoin="round"/>
<path d="M821.802 773.849C822.79 785.85 824.129 797.816 825.813 809.727" stroke="#025B52" stroke-width="1.4277" stroke-miterlimit="10" stroke-linecap="round" stroke-linejoin="round"/>
<path d="M828.485 788.738C828.683 791.217 828.88 793.696 829.078 796.175" stroke="#025B52" stroke-width="1.4277" stroke-miterlimit="10" stroke-linecap="round" stroke-linejoin="round"/>
<path d="M836.097 808.326C836.86 799.955 837.955 791.618 839.375 783.347" stroke="#025B52" stroke-width="1.4277" stroke-miterlimit="10" stroke-linecap="round" stroke-linejoin="round"/>
<path d="M851.707 800.902C852.077 803.614 852.446 806.324 852.816 809.036" stroke="#025B52" stroke-width="1.4277" stroke-miterlimit="10" stroke-linecap="round" stroke-linejoin="round"/>
<path d="M857.405 796.837C857.917 801.133 858.428 805.431 858.94 809.727" stroke="#025B52" stroke-width="1.4277" stroke-miterlimit="10" stroke-linecap="round" stroke-linejoin="round"/>
<path d="M791.187 800.875C791.479 803.818 791.77 806.762 792.062 809.705" stroke="#025B52" stroke-width="1.4277" stroke-miterlimit="10" stroke-linecap="round" stroke-linejoin="round"/>
<path d="M781.26 795.403C782.803 800.629 784.345 805.854 785.888 811.08" stroke="#025B52" stroke-width="1.4277" stroke-miterlimit="10" stroke-linecap="round" stroke-linejoin="round"/>
<path d="M466.576 767.876C470.23 752.418 481.047 739.659 494.064 735.456C507.08 731.252 521.828 735.755 531.541 746.896C536.984 753.14 540.779 761.083 544.984 768.561" fill="#00A474"/>
<path d="M499.02 768.981C494.169 754.812 489.68 740.497 485.56 726.06" stroke="#025B52" stroke-width="1.4277" stroke-miterlimit="10" stroke-linecap="round" stroke-linejoin="round"/>
<path d="M489.885 760.567C489.232 757.312 488.25 754.134 486.963 751.107" stroke="#025B52" stroke-width="1.4277" stroke-miterlimit="10" stroke-linecap="round" stroke-linejoin="round"/>
<path d="M473.259 747.008C476.674 753.356 480.088 759.704 483.503 766.052" stroke="#025B52" stroke-width="1.4277" stroke-miterlimit="10" stroke-linecap="round" stroke-linejoin="round"/>
<path d="M506.467 768.669C506.982 757.413 506.909 746.124 506.249 734.876" stroke="#025B52" stroke-width="1.4277" stroke-miterlimit="10" stroke-linecap="round" stroke-linejoin="round"/>
<path d="M514.813 768.743C516.795 758.757 519.534 748.947 522.994 739.441" stroke="#025B52" stroke-width="1.4277" stroke-miterlimit="10" stroke-linecap="round" stroke-linejoin="round"/>
<path d="M522.698 760.079C523.524 755.534 525.019 751.133 527.109 747.089" stroke="#025B52" stroke-width="1.4277" stroke-miterlimit="10" stroke-linecap="round" stroke-linejoin="round"/>
<path d="M527.965 767.82C530.667 761.611 533.681 755.562 536.99 749.706" stroke="#025B52" stroke-width="1.4277" stroke-miterlimit="10" stroke-linecap="round" stroke-linejoin="round"/>
<path d="M546.832 758.989C546.935 761.52 547.3 764.038 547.92 766.481" stroke="#025B52" stroke-width="1.4277" stroke-miterlimit="10" stroke-linecap="round" stroke-linejoin="round"/>
<path d="M553.166 755.635C553.423 759.607 553.68 763.577 553.938 767.549C553.966 767.98 554.088 768.526 554.485 768.584C554.882 768.641 554.747 767.703 554.478 768.023" stroke="#025B52" stroke-width="1.4277" stroke-miterlimit="10" stroke-linecap="round" stroke-linejoin="round"/>
<path d="M460.971 758.342C461.564 761.211 461.825 764.161 461.744 767.1" stroke="#025B52" stroke-width="1.4277" stroke-miterlimit="10" stroke-linecap="round" stroke-linejoin="round"/>
<path d="M452.685 753.655C453.748 758.155 454.811 762.656 455.874 767.156" stroke="#025B52" stroke-width="1.4277" stroke-miterlimit="10" stroke-linecap="round" stroke-linejoin="round"/>
<path d="M383.902 845.943C380.671 835.491 371.442 826.858 361.239 827.137C353.934 827.337 345.959 831.652 339.812 827.386C335.827 824.619 334.328 819.228 331.657 815.004C324.23 803.262 308.007 801.839 295.899 807.43C283.791 813.021 274.546 823.801 264.77 833.329C263.429 834.636 262.019 835.956 260.3 836.551C254.883 838.422 250.124 832.665 245.366 829.303C235.04 822.01 220.421 826.175 211.623 835.514C200.09 847.753 180.878 890.699 191.348 906.839C196.866 915.346 199.151 918.343 208.252 921.709C226.751 928.551 250.813 934.114 270.234 936.578C302.405 940.662 340.452 936.458 368.144 915.134C386.067 901.331 390.76 868.127 383.902 845.943Z" fill="#00726A"/>
<path d="M308.863 836.329C310.385 832.224 311.639 828.003 312.612 823.707" stroke="#024940" stroke-width="1.4277" stroke-miterlimit="10" stroke-linecap="round" stroke-linejoin="round"/>
<path d="M288.35 844.865C289.741 841.061 290.914 837.164 291.861 833.203" stroke="#024940" stroke-width="1.4277" stroke-miterlimit="10" stroke-linecap="round" stroke-linejoin="round"/>
<path d="M266.721 854.359C267.296 852.714 267.871 851.069 268.446 849.425" stroke="#024940" stroke-width="1.4277" stroke-miterlimit="10" stroke-linecap="round" stroke-linejoin="round"/>
<path d="M245.008 862.917C245.712 861.118 246.415 859.32 247.119 857.521" stroke="#024940" stroke-width="1.4277" stroke-miterlimit="10" stroke-linecap="round" stroke-linejoin="round"/>
<path d="M286.755 824.619C287.709 821.757 288.663 818.897 289.617 816.035" stroke="#024940" stroke-width="1.4277" stroke-miterlimit="10" stroke-linecap="round" stroke-linejoin="round"/>
<path d="M323.405 845.762C324.633 842.746 325.858 839.731 327.085 836.713" stroke="#024940" stroke-width="1.4277" stroke-miterlimit="10" stroke-linecap="round" stroke-linejoin="round"/>
<path d="M305.14 866.523C305.75 863.259 306.724 860.076 308.038 857.064" stroke="#024940" stroke-width="1.4277" stroke-miterlimit="10" stroke-linecap="round" stroke-linejoin="round"/>
<path d="M344.701 840.815C345.262 838.864 345.822 836.912 346.383 834.961" stroke="#024940" stroke-width="1.4277" stroke-miterlimit="10" stroke-linecap="round" stroke-linejoin="round"/>
<path d="M327.452 875.452C328.856 871.403 330.258 867.351 331.662 863.301" stroke="#024940" stroke-width="1.4277" stroke-miterlimit="10" stroke-linecap="round" stroke-linejoin="round"/>
<path d="M340.969 862.904C341.225 861.014 341.803 859.176 342.666 857.509" stroke="#024940" stroke-width="1.4277" stroke-miterlimit="10" stroke-linecap="round" stroke-linejoin="round"/>
<path d="M361.04 852.101C362.103 848.778 363.168 845.455 364.231 842.133" stroke="#024940" stroke-width="1.4277" stroke-miterlimit="10" stroke-linecap="round" stroke-linejoin="round"/>
<path d="M371.02 866.506C371.855 863.653 372.692 860.799 373.527 857.946" stroke="#024940" stroke-width="1.4277" stroke-miterlimit="10" stroke-linecap="round" stroke-linejoin="round"/>
<path d="M97.1176 813.309C101.731 794.633 105.328 775.665 107.884 756.536" stroke="#025B52" stroke-width="1.4277" stroke-miterlimit="10" stroke-linecap="round" stroke-linejoin="round"/>
<path d="M105.574 747.868C104.176 743.017 105.359 737.71 107.309 733.085C108.287 730.764 109.5 728.478 111.345 726.886C113.189 725.294 115.781 724.512 117.975 725.458C120.08 726.367 121.428 728.657 122.067 731.005C123.774 737.273 121.186 744.233 116.822 748.76C115.108 750.539 112.953 752.086 110.575 752.048C108.197 752.01 105.774 749.769 106.138 747.231" fill="white"/>
<path d="M110.706 745.639C114.891 743.314 119.937 743.656 124.494 744.928C126.78 745.566 129.077 746.462 130.848 748.148C132.62 749.834 133.781 752.455 133.298 754.95C132.833 757.345 130.977 759.174 128.945 760.26C123.522 763.158 116.723 761.609 111.839 757.752C109.92 756.237 108.137 754.213 107.76 751.679C107.384 749.144 109.01 746.18 111.387 746.128" fill="white"/>
<path d="M113.286 749.582C117.726 751.266 120.965 755.458 123.239 759.907C124.381 762.139 125.356 764.554 125.439 767.104C125.522 769.653 124.556 772.364 122.544 773.699C120.613 774.981 118.106 774.782 115.98 773.936C110.303 771.674 106.673 765.278 105.912 758.797C105.612 756.25 105.749 753.462 107.195 751.425C108.641 749.387 111.754 748.626 113.422 750.455" fill="white"/>
<path d="M89.462 734.815C94.0499 733.685 98.8607 735.37 102.982 737.824C105.05 739.056 107.067 740.539 108.396 742.648C109.724 744.756 110.247 747.606 109.203 749.894C108.203 752.09 105.983 753.364 103.765 753.871C97.8452 755.224 91.6157 751.9 87.7728 746.854C86.2627 744.871 85.0005 742.433 85.2197 739.878C85.4388 737.322 87.6952 734.887 90.0104 735.475" fill="white"/>
<path d="M92.7515 759.603C91.1725 763.228 90.0994 768.168 92.9506 770.733C94.1539 771.816 95.798 772.149 97.3644 772.145C102.684 772.131 107.827 768.347 109.787 763.009C111.439 758.509 111.057 749.513 105.852 747.673C99.6784 745.492 94.8313 754.824 92.7515 759.603Z" fill="white"/>
<path d="M110.769 745.127C109.093 745.828 107.385 746.689 106.282 748.221C104.641 750.499 104.821 754.062 106.657 756.16C108.492 758.258 111.748 758.665 113.999 757.109C116.251 755.553 117.274 752.224 116.365 749.511C115.456 746.798 112.727 744.95 110.065 745.206" fill="#E39B23"/>
<path d="M177.532 808.476C181.613 799.864 185.693 791.251 189.774 782.637" stroke="#025B52" stroke-width="1.4277" stroke-miterlimit="10" stroke-linecap="round" stroke-linejoin="round"/>
<path d="M200.214 776.726C201.437 777.262 202.781 778.434 202.48 780.231C202.236 781.692 201.023 782.617 199.939 783.091C197.379 784.212 189.707 784.542 189.708 779.62C189.71 773.246 198.213 775.847 200.214 776.726Z" fill="white"/>
<path d="M186.851 778.067C188.028 777.422 189.729 777.095 190.789 778.515C191.652 779.673 191.503 781.268 191.125 782.463C190.231 785.284 185.434 791.755 181.991 788.529C177.531 784.351 184.925 779.122 186.851 778.067Z" fill="white"/>
<path d="M187.944 771.048C186.797 770.364 185.525 769.86 184.215 769.865C182.905 769.871 181.556 770.445 180.777 771.582C179.744 773.091 179.938 775.309 180.927 776.853C181.915 778.396 183.547 779.339 185.222 779.839C192.536 782.025 194.036 774.68 187.944 771.048Z" fill="white"/>
<path d="M197.442 786.918C197.619 788.34 197.428 790.023 196.316 790.81C194.861 791.84 192.906 790.649 191.803 789.199C190.195 787.084 186.297 779.679 190.412 778.832C194.217 778.046 197.041 783.731 197.442 786.918Z" fill="white"/>
<path d="M193.952 777.819C192.88 778.668 191.419 779.29 190.248 778.611C188.715 777.723 188.749 775.301 189.403 773.561C190.354 771.027 194.518 763.792 197.174 767.289C199.63 770.524 196.355 775.917 193.952 777.819Z" fill="white"/>
<path d="M190.401 777.225C188.977 777.487 187.859 779.064 188.051 780.609C188.242 782.154 189.762 783.368 191.179 783.06C192.091 782.861 192.839 782.14 193.381 781.322C194.772 779.228 192.398 776.857 190.401 777.225Z" fill="#E39B23"/>
<path d="M343.676 828.807C347.212 823.388 350.464 817.751 353.408 811.934" stroke="#025B52" stroke-width="1.4277" stroke-miterlimit="10" stroke-linecap="round" stroke-linejoin="round"/>
<path d="M359.312 815.278C359.418 816.699 359.054 818.523 357.434 819.042C356.115 819.465 354.804 818.711 353.924 817.881C351.844 815.918 348.116 808.674 352.187 806.457C357.46 803.585 359.138 812.955 359.312 815.278Z" fill="white"/>
<path d="M352.185 803.003C353.248 803.846 354.286 805.339 353.587 807C353.019 808.352 351.633 808.928 350.474 809.101C347.738 809.51 340.225 807.802 341.344 803.03C342.79 796.85 350.444 801.621 352.185 803.003Z" fill="white"/>
<path d="M358.482 800.895C358.531 799.483 358.374 798.028 357.781 796.769C357.186 795.509 356.103 794.466 354.812 794.227C353.099 793.911 351.352 795.098 350.521 796.746C349.689 798.393 349.645 800.39 349.986 802.23C351.472 810.265 358.221 808.403 358.482 800.895Z" fill="white"/>
<path d="M349.634 817.196C348.539 818.009 347.061 818.582 345.909 817.864C344.403 816.926 344.507 814.506 345.209 812.788C346.233 810.286 350.602 803.195 353.155 806.778C355.519 810.093 352.091 815.376 349.634 817.196Z" fill="white"/>
<path d="M355.588 809.736C354.404 809.084 353.232 807.957 353.264 806.522C353.308 804.644 355.326 803.587 357.061 803.433C359.585 803.208 367.444 803.963 365.748 808.098C364.18 811.923 358.243 811.195 355.588 809.736Z" fill="white"/>
<path d="M354.481 806.044C353.624 804.79 351.814 804.424 350.623 805.304C349.433 806.185 349.113 808.196 350.006 809.421C350.582 810.212 351.515 810.607 352.435 810.762C354.793 811.159 355.685 807.804 354.481 806.044Z" fill="#E39B23"/>
<path d="M255.683 836.774C255.551 828.814 255.419 820.853 255.288 812.892" stroke="#025B52" stroke-width="1.4277" stroke-miterlimit="10" stroke-linecap="round" stroke-linejoin="round"/>
<path d="M254.932 785.215C256.049 783.248 258.137 781.241 260.715 782.232C262.812 783.037 263.86 785.373 264.276 787.367C265.259 792.074 263.726 805.385 256.446 804.087C247.016 802.407 253.105 788.432 254.932 785.215Z" fill="white"/>
<path d="M253.393 808.605C252.75 806.405 252.713 803.387 255.095 801.935C257.033 800.754 259.355 801.431 261.021 802.397C264.958 804.682 273.266 814.655 267.588 819.74C260.233 826.326 254.446 812.202 253.393 808.605Z" fill="white"/>
<path d="M243.301 804.87C241.987 806.666 240.905 808.726 240.569 810.986C240.232 813.247 240.725 815.724 242.201 817.367C244.16 819.546 247.493 819.795 250.036 818.498C252.579 817.202 254.402 814.638 255.584 811.881C260.745 799.848 250.279 795.325 243.301 804.87Z" fill="white"/>
<path d="M269.277 792.681C271.428 792.748 273.865 793.522 274.736 795.647C275.876 798.426 273.601 801.481 271.163 803.002C267.613 805.217 255.632 809.983 255.463 802.668C255.305 795.901 264.457 792.529 269.277 792.681Z" fill="white"/>
<path d="M254.898 796.297C255.871 798.369 256.406 801.051 255.094 802.891C253.377 805.299 249.803 804.601 247.401 803.016C243.902 800.708 234.299 791.625 240.171 787.967C245.604 784.585 252.72 791.655 254.898 796.297Z" fill="white"/>
<path d="M253.083 802.262C253.094 804.785 255.134 807.128 257.47 807.206C259.806 807.281 262.002 804.982 261.918 802.461C261.864 800.835 260.993 799.356 259.927 798.205C257.199 795.256 253.067 798.722 253.083 802.262Z" fill="#E39B23"/>
<path d="M13.9206 868.46C5.87297 839.192 16.6979 806.184 37.1406 785.088C47.2643 774.64 60.5935 766.422 74.5564 767.6C88.5192 768.777 101.949 782.292 100.1 797.279C112.75 786.25 128.007 777.081 144.255 777.744C160.503 778.406 177.033 792.021 177.123 809.574C193.505 799.776 215.998 804.083 228.259 819.366C240.52 834.648 241.256 859.297 229.934 875.402C218.513 891.648 215.926 907.242 200.016 918.239C184.106 929.235 165.432 934.618 146.826 938.15C117.629 943.693 86.6459 944.861 59.2425 932.655C31.839 920.449 22.3576 899.14 13.9206 868.46Z" fill="#00A474"/>
<path d="M68.01 815.593C68.01 810.862 68.01 806.131 68.01 801.4" stroke="#025B52" stroke-width="1.4277" stroke-miterlimit="10" stroke-linecap="round" stroke-linejoin="round"/>
<path d="M88.2037 830.515C89.4295 826.226 90.6554 821.937 91.8813 817.647" stroke="#025B52" stroke-width="1.4277" stroke-miterlimit="10" stroke-linecap="round" stroke-linejoin="round"/>
<path d="M130.557 812.194C131.829 807.695 133.101 803.195 134.373 798.696" stroke="#025B52" stroke-width="1.4277" stroke-miterlimit="10" stroke-linecap="round" stroke-linejoin="round"/>
<path d="M115.08 843.998C115.484 840.842 115.89 837.687 116.295 834.53" stroke="#025B52" stroke-width="1.4277" stroke-miterlimit="10" stroke-linecap="round" stroke-linejoin="round"/>
<path d="M69.9998 862.266C70.8124 859.33 71.6251 856.394 72.4377 853.458" stroke="#025B52" stroke-width="1.4277" stroke-miterlimit="10" stroke-linecap="round" stroke-linejoin="round"/>
<path d="M156.888 823.692C158.57 819.868 160.253 816.045 161.934 812.221" stroke="#025B52" stroke-width="1.4277" stroke-miterlimit="10" stroke-linecap="round" stroke-linejoin="round"/>
<path d="M145.755 861.614C148.194 856.398 150.635 851.18 153.074 845.964" stroke="#025B52" stroke-width="1.4277" stroke-miterlimit="10" stroke-linecap="round" stroke-linejoin="round"/>
<path d="M168.307 848.118C172.558 840.667 177.004 833.347 181.641 826.169" stroke="#025B52" stroke-width="1.4277" stroke-miterlimit="10" stroke-linecap="round" stroke-linejoin="round"/>
<path d="M200.719 827.746C202.409 825.058 204.101 822.37 205.791 819.682" stroke="#025B52" stroke-width="1.4277" stroke-miterlimit="10" stroke-linecap="round" stroke-linejoin="round"/>
<path d="M213.306 849.424C216.435 844.917 219.563 840.41 222.692 835.902" stroke="#025B52" stroke-width="1.4277" stroke-miterlimit="10" stroke-linecap="round" stroke-linejoin="round"/>
<path d="M177.61 879.829C180.969 874.436 184.327 869.044 187.685 863.65" stroke="#025B52" stroke-width="1.4277" stroke-miterlimit="10" stroke-linecap="round" stroke-linejoin="round"/>
<path d="M80.5505 798.019C80.3023 792.385 80.5367 786.725 81.2488 781.137" stroke="#025B52" stroke-width="1.4277" stroke-miterlimit="10" stroke-linecap="round" stroke-linejoin="round"/>
</g>
<path d="M367.933 320.983C364.102 311.748 353.163 306.143 342.353 305.279C313.435 302.965 298.958 316.511 293.223 340.696C289.323 357.146 288.279 374.11 289.469 390.903C290.009 398.513 291.038 406.222 294.343 413.23C300.8 426.915 316.301 436.667 332.657 437.337C344.753 437.833 353.828 426.39 359.695 416.756C365.563 407.121 367.523 395.958 368.829 385.009C371.412 363.378 376.38 341.343 367.933 320.983Z" fill="#E39B23"/>
<path d="M330.462 664.336C329.145 678.641 329.292 694.124 329.651 706.958C329.675 707.834 329.701 709.247 329.727 710.754C329.782 714.003 332.308 716.604 335.417 716.604C350.613 716.598 367.894 716.62 382.499 716.608C382.567 715.083 382.473 711.443 382.239 710.229C381.416 705.96 378.869 703.515 375.613 702.199C371.432 700.506 366.579 700.603 362.843 698.013C356.963 693.936 356.384 685.309 356.412 677.937C356.425 674.37 356.438 670.803 356.453 667.237" fill="#008197"/>
<path d="M328.191 708.396C341.911 710.233 355.808 709.782 369.633 709.328C373.507 709.201 377.383 709.073 381.258 708.946" stroke="#004E60" stroke-width="1.69868" stroke-miterlimit="10" stroke-linecap="round" stroke-linejoin="round"/>
<path d="M368.392 708.238C368.035 704.974 369.975 701.583 372.896 700.365" stroke="#004E60" stroke-width="1.69868" stroke-miterlimit="10" stroke-linecap="round" stroke-linejoin="round"/>
<path d="M350.351 693.83C352.828 692.622 355.472 691.788 358.177 691.364" stroke="#004E60" stroke-width="1.69868" stroke-miterlimit="10" stroke-linecap="round" stroke-linejoin="round"/>
<path d="M353.02 698.449C355.202 697.214 357.384 695.978 359.566 694.743" stroke="#004E60" stroke-width="1.69868" stroke-miterlimit="10" stroke-linecap="round" stroke-linejoin="round"/>
<path d="M359.121 703.913C360.231 701.759 361.999 699.983 364.103 698.912" stroke="#004E60" stroke-width="1.69868" stroke-miterlimit="10" stroke-linecap="round" stroke-linejoin="round"/>
<path d="M403.132 641.176C401.815 655.481 401.963 670.964 402.321 683.798C402.342 684.493 402.36 685.524 402.382 686.67C402.449 690.43 405.375 693.444 408.974 693.442C423.954 693.438 440.849 693.458 455.169 693.446C455.238 691.922 455.144 688.282 454.909 687.068C454.087 682.798 451.539 680.353 448.284 679.037C444.103 677.344 439.249 677.441 435.514 674.851C429.633 670.775 429.055 662.147 429.083 654.775C429.095 651.208 429.108 647.642 429.123 644.075" fill="#008197"/>
<path d="M402.44 684.622C402.321 683.798 437.156 685.566 454.704 686.554" stroke="#004E60" stroke-width="1.69868" stroke-miterlimit="10" stroke-linecap="round" stroke-linejoin="round"/>
<path d="M440.922 685.08C440.752 681.826 442.544 678.547 445.313 677.045" stroke="#004E60" stroke-width="1.69868" stroke-miterlimit="10" stroke-linecap="round" stroke-linejoin="round"/>
<path d="M425.648 671.682C427.614 670.939 429.581 670.194 431.547 669.449" stroke="#004E60" stroke-width="1.69868" stroke-miterlimit="10" stroke-linecap="round" stroke-linejoin="round"/>
<path d="M428.434 676.507C430.387 675.443 432.338 674.38 434.291 673.316" stroke="#004E60" stroke-width="1.69868" stroke-miterlimit="10" stroke-linecap="round" stroke-linejoin="round"/>
<path d="M434.008 679.4C435.368 678.24 436.726 677.08 438.085 675.92" stroke="#004E60" stroke-width="1.69868" stroke-miterlimit="10" stroke-linecap="round" stroke-linejoin="round"/>
<path d="M328.153 436.837C328.289 483.537 326.906 530.639 326.808 575.072C326.726 612.627 314.141 648.896 312.294 685.244C321.993 687.656 358.212 685.551 365.563 684.601C365.563 684.601 368.551 631.75 371.889 575.546C373.526 547.992 379.613 520.391 382.653 500.286C392.238 512.725 419.075 474.032 402.951 436.608" fill="#964941"/>
<path d="M326.071 685.228C327.495 668.437 331.33 651.986 333.954 635.353C339.593 599.627 339.648 563.326 341.723 527.271C342.65 511.165 341.47 489.26 347.117 474.106C349.185 468.557 354.535 465.258 357.986 460.173C362.114 454.09 364.868 446.97 365.803 439.568" stroke="#4C1B1A" stroke-width="1.69868" stroke-miterlimit="10" stroke-linecap="round" stroke-linejoin="round"/>
<path d="M312.918 670.908C330.468 671.582 348.047 671.416 365.582 670.414" stroke="#4C1B1A" stroke-width="1.69868" stroke-miterlimit="10" stroke-linecap="round" stroke-linejoin="round"/>
<path d="M382.654 500.286C386.004 472.903 391.661 450.226 393.74 429.359C396.66 433.467 398.543 428.015 401.246 433.219C415.219 460.119 437.651 499.985 447.805 523.396C451.833 532.679 455.598 542.346 456.101 552.525C456.49 560.415 454.896 568.249 453.311 575.975C447.683 603.404 445.095 632.08 439.467 659.511C423.636 667.032 401.987 666.685 385.559 660.723C390.447 639.46 395.338 618.197 400.226 596.935C402.118 588.707 404.019 580.408 404.254 571.949C404.878 549.333 393.494 519.874 382.654 500.286Z" fill="#7A3530"/>
<path d="M386.708 490.692C395.772 509.152 403.82 528.159 410.796 547.585C416.601 563.744 409.028 584.737 405.455 601.588C401.231 621.505 397.006 641.423 392.783 661.343" stroke="#4C1B1A" stroke-width="1.69868" stroke-miterlimit="10" stroke-linecap="round" stroke-linejoin="round"/>
<path d="M388.792 649.257C400.675 652.152 413.114 652.526 425.138 650.353C430.527 649.379 435.916 647.892 441.376 648.249" stroke="#4C1B1A" stroke-width="1.69868" stroke-miterlimit="10" stroke-linecap="round" stroke-linejoin="round"/>
<path d="M325.053 438.729C322.425 403.672 323.92 378.794 328.02 346.648C329.699 333.482 335.851 321.234 345.73 312.871C349.375 309.785 353.096 307.624 356.791 307.045C366.696 305.493 366.149 306.377 376.343 306.964C403.441 335.271 399.284 345.886 402.055 364.221C405.819 389.116 406.273 413.959 406.356 438.742" fill="#D65739"/>
<path d="M360.457 314.645C366.849 316.33 373.716 315.994 379.93 313.694" stroke="#99321D" stroke-width="1.69868" stroke-miterlimit="10" stroke-linecap="round" stroke-linejoin="round"/>
<path d="M357.199 432.893C375.266 432.255 386.813 432.255 404.365 432.738" stroke="#99321D" stroke-width="1.69868" stroke-miterlimit="10" stroke-linecap="round" stroke-linejoin="round"/>
<path d="M379.235 368.324C383.953 374.188 388.389 380.3 392.517 386.63" stroke="#99321D" stroke-width="1.69868" stroke-miterlimit="10" stroke-linecap="round" stroke-linejoin="round"/>
<path d="M383.423 363.862C385.348 366.535 387.273 369.208 389.198 371.881" stroke="#99321D" stroke-width="1.69868" stroke-miterlimit="10" stroke-linecap="round" stroke-linejoin="round"/>
<path d="M356.113 306.749C355.869 299.657 355.626 292.566 355.382 285.473C362.884 286.506 376.554 280.411 378.816 292.062C379.933 297.821 377.648 307.894 377.648 307.894C372.061 310.505 361.05 307.718 356.113 306.749Z" fill="#F7B98F"/>
<path d="M388.471 292.406C383.021 299.087 373.369 300.923 365.157 298.798C358.674 297.121 352.756 293.247 348.548 287.928C335.866 271.901 344.964 241.473 367.902 243.073C386.59 244.378 400.515 277.645 388.471 292.406Z" fill="#F7B98F"/>
<path d="M392.423 276.132C394.473 276.306 396.585 275.256 397.727 273.492C398.867 271.73 398.99 269.327 398.033 267.461C396.276 264.029 391.911 263.236 388.814 261.014" fill="#F7B98F"/>
<path d="M391.676 283.055C389.644 283.769 387.251 283.215 385.699 281.671" stroke="#16211A" stroke-width="1.50791" stroke-miterlimit="10" stroke-linecap="round" stroke-linejoin="round"/>
<path d="M386.928 263.384C386.996 264.095 387.063 264.805 387.131 265.515" stroke="#16211A" stroke-width="1.50791" stroke-miterlimit="10" stroke-linecap="round" stroke-linejoin="round"/>
<path d="M367.056 272.036C366.306 270.977 364.593 271.266 363.766 272.262C362.938 273.258 362.755 274.654 362.611 275.964" stroke="#16211A" stroke-width="1.50791" stroke-miterlimit="10" stroke-linecap="round" stroke-linejoin="round"/>
<path d="M381.866 276.346C379.488 277.601 376.198 276.24 375.289 273.623C373.923 269.701 378.137 265.55 381.81 267.36C385.223 269.043 385.16 274.609 381.866 276.346Z" fill="#D86860"/>
<path d="M387.896 245.084C389.498 246.651 390.697 248.84 390.566 251.129C390.394 254.136 387.877 256.616 385.069 257.297C382.261 257.978 379.285 257.145 376.741 255.726C376.181 258.469 375.292 262.103 374.738 264.847C374.184 267.592 372.209 270.411 369.524 270.365C367.329 270.327 365.486 268.393 363.293 268.314C360.494 268.213 358.339 271.475 358.744 274.37C359.149 277.265 361.449 279.548 364.017 280.716C363.185 285.907 359.83 292.464 355.688 296.555C346.802 295.065 344.123 285.734 341.632 276.697C340.694 273.293 340.125 269.734 340.433 266.208C341.054 259.113 345.261 252.708 350.776 248.516C356.29 244.324 361.209 242.176 369.96 243.2C371.338 243.361 383.368 240.651 387.896 245.084Z" fill="#16211A"/>
<path d="M375.164 257.477C375.229 260.121 375.043 262.773 374.608 265.378C374.28 267.356 373.646 269.537 371.95 270.481C369.895 271.622 367.218 270.245 366.043 268.148" stroke="#16211A" stroke-width="1.50791" stroke-miterlimit="10" stroke-linecap="round" stroke-linejoin="round"/>
<path d="M343.393 274.607C339.17 273.47 334.397 274.953 331.454 278.315C328.511 281.679 327.527 286.776 328.992 291.068C329.4 292.267 329.982 293.398 330.654 294.457C331.938 296.48 333.581 298.279 335.561 299.549C339.827 302.285 345.588 302.235 349.809 299.427C354.033 296.617 356.51 291.186 355.941 285.99" fill="#16211A"/>
<path d="M333.254 297.264C330.045 297.74 326.867 295.368 325.572 292.265C324.277 289.161 324.587 285.543 325.648 282.343C326.309 280.345 327.266 278.429 328.654 276.892C331.011 274.285 334.595 272.953 337.998 273.42C341.401 273.887 344.537 276.14 346.17 279.295" stroke="#16211A" stroke-width="1.50791" stroke-miterlimit="10" stroke-linecap="round" stroke-linejoin="round"/>
<path d="M375.887 256.027C377.432 258.364 380.384 259.584 383.041 258.982C385.697 258.38 387.9 255.992 388.378 253.196" stroke="#16211A" stroke-width="1.50791" stroke-miterlimit="10" stroke-linecap="round" stroke-linejoin="round"/>
<path d="M339.77 267.349C338.172 263.597 338.096 259.03 338.663 254.915C339.306 250.264 341.089 245.559 343.655 242.442C349.237 235.662 362.265 230.723 370.413 232.317C376.755 233.558 386.878 238.58 390.621 248.599C378.843 251.393 342.962 266.266 339.77 267.349Z" fill="#D65739"/>
<path d="M371.322 254.497C382.017 249.409 394.547 249.455 404.935 243.718C404.764 242.384 403.79 240.633 402.519 240.421C401.248 240.209 399.96 240.568 398.719 240.925C385.317 244.779 371.946 248.753 358.607 252.846" fill="#D65739"/>
<path d="M352.595 261.948C349.272 253.765 349.685 244.021 353.691 236.177" stroke="#99321D" stroke-width="1.69868" stroke-miterlimit="10" stroke-linecap="round" stroke-linejoin="round"/>
<path d="M359.187 233.832C365.589 239.232 370.198 246.91 372.066 255.28" stroke="#99321D" stroke-width="1.69868" stroke-miterlimit="10" stroke-linecap="round" stroke-linejoin="round"/>
<path d="M361.513 241.128C362.72 243.554 363.924 245.98 365.131 248.408" stroke="#99321D" stroke-width="1.69868" stroke-miterlimit="10" stroke-linecap="round" stroke-linejoin="round"/>
<path d="M381.762 241.16C382.944 242.807 384.127 244.455 385.309 246.101" stroke="#99321D" stroke-width="1.69868" stroke-miterlimit="10" stroke-linecap="round" stroke-linejoin="round"/>
<path d="M340.396 364.26C336.003 363.088 321.437 344.232 313.838 340.036C300.488 355.133 272.67 378.074 265.492 397.353C263.336 403.143 279.068 419.465 291.357 427.911C303.058 435.953 312.451 441.743 327.879 447.823C333.549 439.792 336.005 426.303 328.461 419.708C305.829 407.806 301.826 398.318 301.826 398.318C301.826 398.318 334.096 369.112 340.396 364.26Z" fill="#F7B98F"/>
<path d="M325.228 418.909C328.559 418.386 334.126 417.472 337.466 417.032C338.5 416.895 339.644 416.79 340.494 417.42C341.822 418.404 341.577 420.695 340.433 421.905C339.288 423.115 337.603 423.53 336.01 423.891C333.702 424.414 331.395 424.939 329.089 425.462" fill="#F7B98F"/>
<path d="M320.484 444.192C326.774 447.583 333.656 449.772 340.688 450.621C342.072 450.787 343.529 450.893 344.802 450.299C346.075 449.705 347.058 448.19 346.631 446.804C346.238 445.522 344.897 444.887 343.694 444.401C336.973 441.683 330.253 438.964 323.532 436.247" fill="#F7B98F"/>
<path d="M327.846 430.003C335.125 431.736 346.175 433.792 353.063 436.801C353.805 437.125 354.58 437.484 355.069 438.154C356.205 439.709 355.099 442.137 353.399 442.957C351.699 443.778 349.721 443.473 347.873 443.152C342.146 442.158 336.417 441.166 330.689 440.172C329.47 439.96 328.121 439.669 327.399 438.619" fill="#F7B98F"/>
<path d="M326.697 424.232C334.586 423.914 342.499 424.093 350.362 424.765C353.525 425.035 355.036 429.303 352.573 431.395C352.412 431.532 352.244 431.651 352.069 431.756C349.957 433 347.276 433.014 344.764 432.962C338.192 432.825 331.624 432.524 325.071 432.059" fill="#F7B98F"/>
<path d="M329.743 381.053C317.958 368.733 307.514 363.131 295.729 350.813C302.234 342.891 309.386 331.585 316.541 323.944C321.254 318.912 326.604 314.304 332.934 311.889C339.266 309.475 351.132 307.417 356.784 311.254C362.574 315.186 361.251 324.66 361.548 331.868C361.846 339.077 358.797 345.22 354.931 351.197C346.986 363.474 338.22 372.433 329.743 381.053Z" fill="#D65739"/>
<path d="M325.716 376.146C330.392 371.368 334.7 366.195 338.584 360.695" stroke="#99321D" stroke-width="1.69868" stroke-miterlimit="10" stroke-linecap="round" stroke-linejoin="round"/>
<path d="M335.467 372.366C336.243 371.244 337.019 370.123 337.793 369.002" stroke="#99321D" stroke-width="1.69868" stroke-miterlimit="10" stroke-linecap="round" stroke-linejoin="round"/>
<path d="M301.378 343.41C303.605 344.255 305.421 345.954 307.18 347.611C314.926 354.922 322.673 362.235 330.42 369.546" stroke="#99321D" stroke-width="1.69868" stroke-miterlimit="10" stroke-linecap="round" stroke-linejoin="round"/>
<path d="M338.562 309.075C342.901 314.163 344.149 321.331 344.533 328.132C345.902 352.367 343.628 387.383 319.379 395.585C319.425 400.58 321.18 408.443 321.226 413.438C328.214 414.882 337.887 409.738 343.611 405.307C349.333 400.878 353.551 394.62 356.815 388.006C369.099 363.117 368.192 331.645 354.493 307.574C350.626 306.753 346.565 306.948 342.785 308.133C342.013 308.376 341.361 308.948 340.583 309.168C339.805 309.388 338.75 309.017 338.693 308.178C338.632 307.338 338.789 308.266 338.562 309.075Z" fill="#E39B23"/>
<path d="M325.812 397.917C331.879 395.292 336.945 390.232 339.726 384.017" stroke="#A36811" stroke-width="1.69868" stroke-miterlimit="10" stroke-linecap="round" stroke-linejoin="round"/>
<path d="M342.482 378.219C343.251 376.449 344.021 374.682 344.79 372.912" stroke="#A36811" stroke-width="1.69868" stroke-miterlimit="10" stroke-linecap="round" stroke-linejoin="round"/>
<path d="M341.93 391.195C343.833 387.613 345.509 383.897 346.94 380.082" stroke="#A36811" stroke-width="1.69868" stroke-miterlimit="10" stroke-linecap="round" stroke-linejoin="round"/>
<path d="M353.686 311.601C354.62 316.262 355.555 320.925 356.49 325.586" stroke="#A36811" stroke-width="1.69868" stroke-miterlimit="10" stroke-linecap="round" stroke-linejoin="round"/>
<path d="M323.251 394.941C323.434 399.604 323.617 404.267 323.798 408.929" stroke="#A36811" stroke-width="1.69868" stroke-miterlimit="10" stroke-linecap="round" stroke-linejoin="round"/>
</svg>
