<svg width="1648" height="966" viewBox="0 0 1648 966" fill="none" xmlns="http://www.w3.org/2000/svg">
<path d="M1648 -0.888611H6.10352e-05V966H1648V-0.888611Z" fill="#CAE6ED"/>
<mask id="mask0_4_6" style="mask-type:luminance" maskUnits="userSpaceOnUse" x="0" y="-1" width="1648" height="966">
<path d="M1648 -1H0V964.464H1648V-1Z" fill="white"/>
</mask>
<g mask="url(#mask0_4_6)">
<path d="M885.15 438.153C859.283 439.095 837.193 421.066 824.648 401.168C812.101 381.268 805.837 358.641 792.774 339C763.907 295.598 700.459 272.504 645.126 285.256C659.123 242.204 615.135 197.907 565.523 187.698C515.912 177.487 464.402 191.71 416.498 206.965C405.885 210.344 394.645 213.837 383.553 211.993C367.135 209.263 355.843 195.443 351.103 181.361C346.363 167.278 346.449 152.304 343.089 137.921C329.6 80.1589 264.341 43.2222 200.467 25.1583C111.374 -0.0383412 13.7069 -1.26641 -76.1662 21.6788C-57.535 124.742 -52.7163 233.654 -53.0107 338.009C49.0642 420.639 175.765 480.494 310.938 508.128C446.114 535.759 586.923 537.756 724.891 524.564C751.47 522.023 778.462 518.806 802.721 508.927C843.901 492.153 840.658 446.045 885.15 438.153Z" fill="white"/>
<path d="M1789.45 200.975C1772.81 138.239 1703.34 92.8141 1630.55 85.1676C1557.77 77.5211 1484.19 102.737 1426.23 142.178C1397.17 161.955 1366.64 186.738 1329.99 184.243C1315.41 183.251 1301.66 177.842 1287.2 175.877C1252.09 171.102 1217.46 187.065 1190.02 206.893C1128.26 251.521 1088.64 319.028 1083.07 389.121C1023.32 395.502 970.322 436.461 955.49 487.718C974.798 502.804 1001.39 506.838 1026.08 513.527C1174.39 553.694 1334.42 559.907 1486.18 531.391C1579.57 513.841 1672.68 481.687 1739.48 421.701C1806.27 361.715 1811.12 282.715 1789.45 200.975Z" fill="white"/>
<path d="M1097.59 379.495C1098.55 361.703 1102.67 344.047 1109.73 327.354" stroke="#CAE6ED" stroke-width="1.69868" stroke-miterlimit="10" stroke-linecap="round" stroke-linejoin="round"/>
<path d="M1114.15 313.847C1115.62 311.273 1117.08 308.698 1118.55 306.124" stroke="#CAE6ED" stroke-width="1.69868" stroke-miterlimit="10" stroke-linecap="round" stroke-linejoin="round"/>
<path d="M1113.9 342.777C1115.69 332.465 1119.13 322.376 1124.08 312.897" stroke="#CAE6ED" stroke-width="1.69868" stroke-miterlimit="10" stroke-linecap="round" stroke-linejoin="round"/>
<path d="M993.994 440.062C1001.14 431.479 1010.92 424.609 1022.03 420.382" stroke="#CAE6ED" stroke-width="1.69868" stroke-miterlimit="10" stroke-linecap="round" stroke-linejoin="round"/>
<path d="M1405.54 176.01C1434.6 152.464 1468.53 133.568 1505.17 120.521" stroke="#CAE6ED" stroke-width="1.69868" stroke-miterlimit="10" stroke-linecap="round" stroke-linejoin="round"/>
<path d="M1468.6 125.047C1484.29 115.427 1502.11 108.497 1520.77 104.759" stroke="#CAE6ED" stroke-width="1.69868" stroke-miterlimit="10" stroke-linecap="round" stroke-linejoin="round"/>
<path d="M1520.67 115.933C1523.53 113.952 1526.96 112.606 1530.55 112.054" stroke="#CAE6ED" stroke-width="1.69868" stroke-miterlimit="10" stroke-linecap="round" stroke-linejoin="round"/>
<path d="M1551.44 103.417C1555.1 102.453 1558.76 101.488 1562.42 100.524" stroke="#CAE6ED" stroke-width="1.69868" stroke-miterlimit="10" stroke-linecap="round" stroke-linejoin="round"/>
<path d="M575.552 206.793C595.354 214.82 611.99 228.74 622.085 245.728" stroke="#CAE6ED" stroke-width="1.69868" stroke-miterlimit="10" stroke-linecap="round" stroke-linejoin="round"/>
<path d="M616.719 222.289C626.148 233.948 633.034 247.19 636.892 261.085" stroke="#CAE6ED" stroke-width="1.69868" stroke-miterlimit="10" stroke-linecap="round" stroke-linejoin="round"/>
<path d="M329.281 172.249C327.719 135.561 311.417 99.4855 283.909 71.8539" stroke="#CAE6ED" stroke-width="1.69868" stroke-miterlimit="10" stroke-linecap="round" stroke-linejoin="round"/>
<path d="M251.641 60.39C266.741 65.4509 278.624 77.3531 282.368 91.167" stroke="#CAE6ED" stroke-width="1.69868" stroke-miterlimit="10" stroke-linecap="round" stroke-linejoin="round"/>
</g>
<mask id="mask1_4_6" style="mask-type:luminance" maskUnits="userSpaceOnUse" x="0" y="-1" width="1648" height="966">
<path d="M1648 -1H0V964.464H1648V-1Z" fill="white"/>
</mask>
<g mask="url(#mask1_4_6)">
<path d="M912.779 284.445C916.64 287.04 921.05 289.145 925.774 290.663C942.491 296.035 963.071 293.306 976.515 283.933C1009.23 261.127 985.664 218.255 942.601 217.314C899.896 216.382 882.278 263.954 912.779 284.445Z" fill="#E39B23"/>
<path d="M931.111 287.189C914.829 282.338 903.557 266.879 905.341 251.855" stroke="#BF6717" stroke-width="1.69868" stroke-miterlimit="10" stroke-linecap="round" stroke-linejoin="round"/>
<path d="M910.395 257.812C909.219 252.442 909.876 246.773 912.263 241.721" stroke="#BF6717" stroke-width="1.69868" stroke-miterlimit="10" stroke-linecap="round" stroke-linejoin="round"/>
<path d="M914.39 236.502C915.405 235.237 916.418 233.975 917.433 232.71" stroke="#BF6717" stroke-width="1.69868" stroke-miterlimit="10" stroke-linecap="round" stroke-linejoin="round"/>
<path d="M938.749 288.875C941.432 288.63 944.113 288.384 946.796 288.139" stroke="#BF6717" stroke-width="1.69868" stroke-miterlimit="10" stroke-linecap="round" stroke-linejoin="round"/>
<path d="M964.434 228.628C973.138 231.713 979.716 238.616 982.72 246.431C985.724 254.245 985.375 262.859 982.863 270.807" stroke="#BF6717" stroke-width="1.69868" stroke-miterlimit="10" stroke-linecap="round" stroke-linejoin="round"/>
</g>
</svg>
