<svg width="1648" height="964" viewBox="0 0 1648 964" fill="none" xmlns="http://www.w3.org/2000/svg">
<mask id="mask0_4_6" style="mask-type:luminance" maskUnits="userSpaceOnUse" x="0" y="-1" width="1648" height="965">
<path d="M1648 -1H0V964H1648V-1Z" fill="white"/>
</mask>
<g mask="url(#mask0_4_6)">
<path d="M1537.99 337.132C1559.3 345.52 1583.83 346.01 1604.96 354.74C1658.31 376.786 1671.83 441.838 1722.53 468.27C1755.38 521.536 1770.52 599.575 1781.83 659.334C1796.79 738.416 1810.48 824.619 1765.94 894.591C1721.06 965.108 1627.93 1000.46 1538.19 1018.15C1450.48 1035.45 1360.34 1040.55 1270.63 1045.6C908.074 1066.02 571.326 1185.51 214.35 1126.23C152.036 1115.88 -38.2182 1079.28 -80.0928 1037.45C-116.832 1000.74 -85.2873 888.952 -93.2768 840.586C-121.036 672.543 -197.164 507.707 -93.8788 364.171C-50.5145 303.907 5.4648 250.67 70.4202 207.921C119.491 175.626 222.344 139.575 250.461 212.773C256.987 229.764 259.672 248.443 271.733 262.912C280.96 273.984 294.827 281.455 304.601 292.159C326.253 315.873 328.785 355.371 361.22 365.974C382.378 372.889 406.236 362.616 421.972 348.398C437.707 334.179 448.377 316.172 463.723 301.63C497.564 269.565 547.143 262.408 593.717 272.018C644.592 282.515 661.657 328.769 680.215 367.809C696.728 402.548 716.333 436.153 738.792 468.214C750.323 484.677 766.731 502.67 788.7 501.555C806.134 500.669 819.291 487.89 830.539 476.16C867.463 437.65 886.71 380.011 943.865 383.819C970.233 397.972 984.212 440.495 998.17 456.761C1012.13 473.027 1035.61 484.69 1058.28 480.402C1105.79 471.414 1105.87 422.4 1144.02 404.028C1150.02 401.137 1156.47 398.956 1162.19 395.648C1186.09 381.815 1190.71 353.392 1203.36 330.84C1205.41 327.191 1207.79 323.568 1211.33 320.945C1215.38 317.942 1220.59 316.504 1225.35 314.449C1247.55 304.853 1258.27 282.938 1269.12 263.406C1286.99 231.22 1311.89 208.027 1351.84 197.062C1358.25 195.302 1364.82 193.891 1371.51 193.37C1414.98 189.991 1439.18 228.757 1459.21 257.066C1480.13 286.661 1499.83 322.105 1537.99 337.132Z" fill="#86C3CE"/>
<path d="M1285.86 262.671C1295.67 242.917 1313.96 226.518 1336.24 217.49" stroke="#5E9FA5" stroke-width="1.69868" stroke-miterlimit="10" stroke-linecap="round" stroke-linejoin="round"/>
<path d="M1350.34 210.366C1353.26 209.391 1356.19 208.415 1359.11 207.44" stroke="#5E9FA5" stroke-width="1.69868" stroke-miterlimit="10"/>
<path d="M1332.76 229.706C1340.52 224.837 1349.04 220.894 1358 218.016" stroke="#5E9FA5" stroke-width="1.69868" stroke-miterlimit="10" stroke-linecap="round" stroke-linejoin="round"/>
<path d="M1266.91 288.6C1261.76 300.692 1252.14 311.278 1239.85 318.363C1233.41 322.078 1226.29 324.842 1219.95 328.696C1213.6 332.548 1207.89 337.819 1206.14 344.414" stroke="#5E9FA5" stroke-width="1.69868" stroke-miterlimit="10" stroke-linecap="round" stroke-linejoin="round"/>
<path d="M1203.08 359.022C1201.97 360.946 1200.86 362.871 1199.75 364.795" stroke="#5E9FA5" stroke-width="1.69868" stroke-miterlimit="10" stroke-linecap="round" stroke-linejoin="round"/>
<path d="M1209.45 364.741C1212.47 358.017 1215.49 351.293 1218.51 344.568" stroke="#5E9FA5" stroke-width="1.69868" stroke-miterlimit="10" stroke-linecap="round" stroke-linejoin="round"/>
<path d="M1159.33 408.623C1144.14 412.86 1131.1 422.733 1124.09 435.305" stroke="#5E9FA5" stroke-width="1.69868" stroke-miterlimit="10" stroke-linecap="round" stroke-linejoin="round"/>
<path d="M1115.31 446.891C1113.86 449.468 1112.4 452.046 1110.95 454.623" stroke="#5E9FA5" stroke-width="1.69868" stroke-miterlimit="10" stroke-linecap="round" stroke-linejoin="round"/>
<path d="M1120.7 454.561C1125.43 447.47 1130.17 440.381 1134.9 433.291" stroke="#5E9FA5" stroke-width="1.69868" stroke-miterlimit="10" stroke-linecap="round" stroke-linejoin="round"/>
<path d="M1385.36 207.959C1401.07 208.067 1413.73 218.742 1424.6 228.701" stroke="#5E9FA5" stroke-width="1.69868" stroke-miterlimit="10" stroke-linecap="round" stroke-linejoin="round"/>
<path d="M1432.73 239.432C1436.76 242.747 1440.16 246.644 1442.77 250.917" stroke="#5E9FA5" stroke-width="1.69868" stroke-miterlimit="10" stroke-linecap="round" stroke-linejoin="round"/>
<path d="M1409.28 235.014C1421.81 244.096 1432.07 255.582 1439.14 268.434" stroke="#5E9FA5" stroke-width="1.69868" stroke-miterlimit="10" stroke-linecap="round" stroke-linejoin="round"/>
<path d="M1070.21 485.483C1083.23 482.502 1095.02 475.567 1103.12 466.133" stroke="#5E9FA5" stroke-width="1.69868" stroke-miterlimit="10" stroke-linecap="round" stroke-linejoin="round"/>
<path d="M1097.68 484.505C1104.07 479.86 1109.94 474.66 1115.18 469.009" stroke="#5E9FA5" stroke-width="1.69868" stroke-miterlimit="10" stroke-linecap="round" stroke-linejoin="round"/>
<path d="M930.509 398.523C940.992 397.458 950.232 405.091 954.794 413.45C959.356 421.807 960.896 431.243 965.479 439.592" stroke="#5E9FA5" stroke-width="1.69868" stroke-miterlimit="10" stroke-linecap="round" stroke-linejoin="round"/>
<path d="M973.581 450.703C975.642 454.619 977.703 458.533 979.765 462.449" stroke="#5E9FA5" stroke-width="1.69868" stroke-miterlimit="10" stroke-linecap="round" stroke-linejoin="round"/>
<path d="M951.692 430.419C955.691 440.341 960.255 450.087 965.361 459.608" stroke="#5E9FA5" stroke-width="1.69868" stroke-miterlimit="10" stroke-linecap="round" stroke-linejoin="round"/>
<path d="M913.126 401.575C910.138 402.546 907.429 404.169 905.31 406.259" stroke="#5E9FA5" stroke-width="1.69868" stroke-miterlimit="10" stroke-linecap="round" stroke-linejoin="round"/>
<path d="M986.756 471.937C987.91 474.166 989.066 476.395 990.219 478.624" stroke="#5E9FA5" stroke-width="1.69868" stroke-miterlimit="10" stroke-linecap="round" stroke-linejoin="round"/>
<path d="M883.675 428.41C858.303 454.573 840.48 487.944 806.709 505.303" stroke="#5E9FA5" stroke-width="1.69868" stroke-miterlimit="10" stroke-linecap="round" stroke-linejoin="round"/>
<path d="M824.035 504.67C831.871 500.163 838.979 494.678 845.075 488.431" stroke="#5E9FA5" stroke-width="1.69868" stroke-miterlimit="10" stroke-linecap="round" stroke-linejoin="round"/>
<path d="M858.279 475.899C860.109 473.969 861.937 472.037 863.768 470.107" stroke="#5E9FA5" stroke-width="1.69868" stroke-miterlimit="10" stroke-linecap="round" stroke-linejoin="round"/>
<path d="M888.927 422.741C889.658 421.454 890.392 420.168 891.124 418.881" stroke="#5E9FA5" stroke-width="1.69868" stroke-miterlimit="10" stroke-linecap="round" stroke-linejoin="round"/>
<path d="M380.793 381.171C401.692 376.045 420.921 365.775 435.718 351.837" stroke="#5E9FA5" stroke-width="1.69868" stroke-miterlimit="10" stroke-linecap="round" stroke-linejoin="round"/>
<path d="M445.068 340.716C447.509 338.143 449.95 335.569 452.391 332.996" stroke="#5E9FA5" stroke-width="1.69868" stroke-miterlimit="10" stroke-linecap="round" stroke-linejoin="round"/>
<path d="M440.587 365.098C446.481 359.119 452.374 353.14 458.267 347.162" stroke="#5E9FA5" stroke-width="1.69868" stroke-miterlimit="10" stroke-linecap="round" stroke-linejoin="round"/>
<path d="M466.05 313.945C474.127 308.2 482.202 302.456 490.28 296.71C499.397 290.225 508.841 283.588 520.104 280.714C529.212 278.391 538.885 278.696 548.362 279.022C557.395 279.332 566.428 279.641 575.462 279.952" stroke="#5E9FA5" stroke-width="1.69868" stroke-miterlimit="10" stroke-linecap="round" stroke-linejoin="round"/>
<path d="M593.084 283.957C599.36 286.068 604.926 289.787 608.918 294.537" stroke="#5E9FA5" stroke-width="1.69868" stroke-miterlimit="10" stroke-linecap="round" stroke-linejoin="round"/>
<path d="M571.069 292.03C579.867 291.335 588.927 293.549 596.051 298.136" stroke="#5E9FA5" stroke-width="1.69868" stroke-miterlimit="10" stroke-linecap="round" stroke-linejoin="round"/>
<path d="M626.748 309.813C629.718 313.217 632.687 316.622 635.658 320.027" stroke="#5E9FA5" stroke-width="1.69868" stroke-miterlimit="10" stroke-linecap="round" stroke-linejoin="round"/>
<path d="M625.331 290.486C634.168 301.607 643.006 312.729 651.844 323.85" stroke="#5E9FA5" stroke-width="1.69868" stroke-miterlimit="10" stroke-linecap="round" stroke-linejoin="round"/>
<path d="M341.019 373.484C326.673 367.788 318.888 354.099 314.023 340.946C309.158 327.795 305.812 313.696 295.992 302.886" stroke="#5E9FA5" stroke-width="1.69868" stroke-miterlimit="10" stroke-linecap="round" stroke-linejoin="round"/>
<path d="M284.043 291.754C282.647 289.996 281.254 288.238 279.859 286.477" stroke="#5E9FA5" stroke-width="1.69868" stroke-miterlimit="10" stroke-linecap="round" stroke-linejoin="round"/>
<path d="M260.488 284.105C276.302 296.176 288.548 311.822 295.713 329.115" stroke="#5E9FA5" stroke-width="1.69868" stroke-miterlimit="10" stroke-linecap="round" stroke-linejoin="round"/>
<path d="M246.097 242.331C242.489 234.724 238.881 227.116 235.275 219.51C231.92 212.433 228.507 205.271 223.229 199.164C217.951 193.058 210.513 188.024 201.893 186.82" stroke="#5E9FA5" stroke-width="1.69868" stroke-miterlimit="10" stroke-linecap="round" stroke-linejoin="round"/>
<path d="M171.133 190.168C182.878 189.281 194.98 193.185 203.28 200.54" stroke="#5E9FA5" stroke-width="1.69868" stroke-miterlimit="10" stroke-linecap="round" stroke-linejoin="round"/>
<path d="M140.599 192.027C130.26 195.248 119.922 198.471 109.583 201.692" stroke="#5E9FA5" stroke-width="1.69868" stroke-miterlimit="10" stroke-linecap="round" stroke-linejoin="round"/>
<path d="M78.9326 221.174C83.3251 218.599 87.7197 216.023 92.1122 213.448" stroke="#5E9FA5" stroke-width="1.69868" stroke-miterlimit="10" stroke-linecap="round" stroke-linejoin="round"/>
</g>
</svg>
